<svg width="360" height="260" viewBox="0 0 360 260" fill="none" xmlns="http://www.w3.org/2000/svg">
  <rect width="360" height="260" rx="32" fill="url(#bg)"/>
  <circle cx="196" cy="55" r="30" fill="#FBBF24"/>
  <path d="M170 96C184 78 211 79 226 96L245 117L226 140L201 116L174 155L145 141L170 96Z" fill="#14B8A6"/>
  <path d="M221 99L270 88" stroke="#F59E0B" stroke-width="16" stroke-linecap="round"/>
  <path d="M169 107L119 123" stroke="#F59E0B" stroke-width="16" stroke-linecap="round"/>
  <path d="M175 151L132 208" stroke="#475569" stroke-width="17" stroke-linecap="round"/>
  <path d="M217 145L283 181" stroke="#475569" stroke-width="17" stroke-linecap="round"/>
  <path d="M122 212L92 205" stroke="#6366F1" stroke-width="13" stroke-linecap="round"/>
  <path d="M291 185L315 203" stroke="#6366F1" stroke-width="13" stroke-linecap="round"/>
  <path d="M182 47C193 30 213 35 224 48C217 50 205 50 197 46C193 54 186 59 176 59C176 54 178 50 182 47Z" fill="#F59E0B"/>
  <circle cx="207" cy="58" r="4" fill="#0F172A"/>
  <path d="M209 70C218 70 224 66 228 62" stroke="#0F172A" stroke-width="3" stroke-linecap="round"/>
  <path d="M39 209C80 198 111 198 153 209" stroke="#CCFBF1" stroke-width="12" stroke-linecap="round"/>
  <path d="M221 219C257 208 292 207 325 217" stroke="#CCFBF1" stroke-width="12" stroke-linecap="round"/>
  <defs>
    <linearGradient id="bg" x1="0" y1="0" x2="360" y2="260" gradientUnits="userSpaceOnUse">
      <stop stop-color="#F0FDFA"/>
      <stop offset="1" stop-color="#FFFFFF"/>
    </linearGradient>
  </defs>
</svg>
