<svg width="360" height="260" viewBox="0 0 360 260" fill="none" xmlns="http://www.w3.org/2000/svg">
  <rect width="360" height="260" rx="32" fill="url(#bg)"/>
  <rect x="68" y="46" width="224" height="152" rx="18" fill="white" stroke="#99F6E4" stroke-width="4"/>
  <path d="M96 160L134 130L170 144L210 96L252 118" stroke="#14B8A6" stroke-width="10" stroke-linecap="round" stroke-linejoin="round"/>
  <circle cx="96" cy="160" r="9" fill="#0EA5E9"/>
  <circle cx="134" cy="130" r="9" fill="#0EA5E9"/>
  <circle cx="170" cy="144" r="9" fill="#0EA5E9"/>
  <circle cx="210" cy="96" r="9" fill="#0EA5E9"/>
  <circle cx="252" cy="118" r="9" fill="#0EA5E9"/>
  <rect x="92" y="62" width="78" height="12" rx="6" fill="#CCFBF1"/>
  <rect x="92" y="190" width="138" height="10" rx="5" fill="#E2E8F0"/>
  <circle cx="270" cy="186" r="38" fill="#14B8A6" fill-opacity="0.14"/>
  <path d="M270 155A31 31 0 1 1 239 186" stroke="#14B8A6" stroke-width="10" stroke-linecap="round"/>
  <text x="270" y="194" text-anchor="middle" font-family="Arial" font-size="22" font-weight="800" fill="#0F766E">86</text>
  <defs>
    <linearGradient id="bg" x1="0" y1="0" x2="360" y2="260" gradientUnits="userSpaceOnUse">
      <stop stop-color="#F0FDFA"/>
      <stop offset="1" stop-color="#EFF6FF"/>
    </linearGradient>
  </defs>
</svg>
